<mxfile host="65bd71144e">
    <diagram id="9UN5LmpQ64sq9moY8zhJ" name="Page-1">
        <mxGraphModel dx="1198" dy="1168" grid="0" gridSize="10" guides="1" tooltips="1" connect="1" arrows="1" fold="1" page="1" pageScale="1" pageWidth="1169" pageHeight="827" background="none" math="0" shadow="0">
            <root>
                <mxCell id="0"/>
                <mxCell id="1" parent="0"/>
                <mxCell id="2" value="User Class" style="swimlane;fontStyle=0;childLayout=stackLayout;horizontal=1;startSize=26;fillColor=none;horizontalStack=0;resizeParent=1;resizeParentMax=0;resizeLast=0;collapsible=1;marginBottom=0;rounded=1;" parent="1" vertex="1">
                    <mxGeometry x="522" y="99" width="140" height="216" as="geometry"/>
                </mxCell>
                <mxCell id="3" value="+ user_id: int" style="text;strokeColor=none;fillColor=none;align=left;verticalAlign=top;spacingLeft=4;spacingRight=4;overflow=hidden;rotatable=0;points=[[0,0.5],[1,0.5]];portConstraint=eastwest;rounded=1;" parent="2" vertex="1">
                    <mxGeometry y="26" width="140" height="26" as="geometry"/>
                </mxCell>
                <mxCell id="4" value="+ user_name: String" style="text;strokeColor=none;fillColor=none;align=left;verticalAlign=top;spacingLeft=4;spacingRight=4;overflow=hidden;rotatable=0;points=[[0,0.5],[1,0.5]];portConstraint=eastwest;rounded=1;" parent="2" vertex="1">
                    <mxGeometry y="52" width="140" height="26" as="geometry"/>
                </mxCell>
                <mxCell id="5" value="+ user_email: String&#10;" style="text;strokeColor=none;fillColor=none;align=left;verticalAlign=top;spacingLeft=4;spacingRight=4;overflow=hidden;rotatable=0;points=[[0,0.5],[1,0.5]];portConstraint=eastwest;rounded=1;" parent="2" vertex="1">
                    <mxGeometry y="78" width="140" height="26" as="geometry"/>
                </mxCell>
                <mxCell id="7" value="- user_password: String&#10;" style="text;strokeColor=none;fillColor=none;align=left;verticalAlign=top;spacingLeft=4;spacingRight=4;overflow=hidden;rotatable=0;points=[[0,0.5],[1,0.5]];portConstraint=eastwest;rounded=1;" parent="2" vertex="1">
                    <mxGeometry y="104" width="140" height="26" as="geometry"/>
                </mxCell>
                <mxCell id="8" value="+ user_email: String&#10;" style="text;strokeColor=none;fillColor=none;align=left;verticalAlign=top;spacingLeft=4;spacingRight=4;overflow=hidden;rotatable=0;points=[[0,0.5],[1,0.5]];portConstraint=eastwest;rounded=1;" parent="2" vertex="1">
                    <mxGeometry y="130" width="140" height="26" as="geometry"/>
                </mxCell>
                <mxCell id="10" value="" style="line;strokeWidth=1;fillColor=none;align=left;verticalAlign=middle;spacingTop=-1;spacingLeft=3;spacingRight=3;rotatable=0;labelPosition=right;points=[];portConstraint=eastwest;rounded=1;" parent="2" vertex="1">
                    <mxGeometry y="156" width="140" height="8" as="geometry"/>
                </mxCell>
                <mxCell id="9" value="+ Login()&#10;" style="text;strokeColor=none;fillColor=none;align=left;verticalAlign=top;spacingLeft=4;spacingRight=4;overflow=hidden;rotatable=0;points=[[0,0.5],[1,0.5]];portConstraint=eastwest;rounded=1;" parent="2" vertex="1">
                    <mxGeometry y="164" width="140" height="26" as="geometry"/>
                </mxCell>
                <mxCell id="11" value="+ Logout()" style="text;strokeColor=none;fillColor=none;align=left;verticalAlign=top;spacingLeft=4;spacingRight=4;overflow=hidden;rotatable=0;points=[[0,0.5],[1,0.5]];portConstraint=eastwest;rounded=1;" parent="2" vertex="1">
                    <mxGeometry y="190" width="140" height="26" as="geometry"/>
                </mxCell>
                <mxCell id="12" value="Patient Class" style="swimlane;fontStyle=0;childLayout=stackLayout;horizontal=1;startSize=26;fillColor=none;horizontalStack=0;resizeParent=1;resizeParentMax=0;resizeLast=0;collapsible=1;marginBottom=0;rounded=1;" parent="1" vertex="1">
                    <mxGeometry x="202" y="205" width="140" height="216" as="geometry"/>
                </mxCell>
                <mxCell id="13" value="+ p_photo: String" style="text;strokeColor=none;fillColor=none;align=left;verticalAlign=top;spacingLeft=4;spacingRight=4;overflow=hidden;rotatable=0;points=[[0,0.5],[1,0.5]];portConstraint=eastwest;rounded=1;" parent="12" vertex="1">
                    <mxGeometry y="26" width="140" height="26" as="geometry"/>
                </mxCell>
                <mxCell id="38" value="+ p_id: int" style="text;strokeColor=none;fillColor=none;align=left;verticalAlign=top;spacingLeft=4;spacingRight=4;overflow=hidden;rotatable=0;points=[[0,0.5],[1,0.5]];portConstraint=eastwest;rounded=1;" parent="12" vertex="1">
                    <mxGeometry y="52" width="140" height="26" as="geometry"/>
                </mxCell>
                <mxCell id="14" value="+ p_address: String" style="text;strokeColor=none;fillColor=none;align=left;verticalAlign=top;spacingLeft=4;spacingRight=4;overflow=hidden;rotatable=0;points=[[0,0.5],[1,0.5]];portConstraint=eastwest;rounded=1;" parent="12" vertex="1">
                    <mxGeometry y="78" width="140" height="26" as="geometry"/>
                </mxCell>
                <mxCell id="15" value="+ p_age: int" style="text;strokeColor=none;fillColor=none;align=left;verticalAlign=top;spacingLeft=4;spacingRight=4;overflow=hidden;rotatable=0;points=[[0,0.5],[1,0.5]];portConstraint=eastwest;rounded=1;" parent="12" vertex="1">
                    <mxGeometry y="104" width="140" height="26" as="geometry"/>
                </mxCell>
                <mxCell id="16" value="+ p_sex: char" style="text;strokeColor=none;fillColor=none;align=left;verticalAlign=top;spacingLeft=4;spacingRight=4;overflow=hidden;rotatable=0;points=[[0,0.5],[1,0.5]];portConstraint=eastwest;rounded=1;" parent="12" vertex="1">
                    <mxGeometry y="130" width="140" height="26" as="geometry"/>
                </mxCell>
                <mxCell id="18" value="" style="line;strokeWidth=1;fillColor=none;align=left;verticalAlign=middle;spacingTop=-1;spacingLeft=3;spacingRight=3;rotatable=0;labelPosition=right;points=[];portConstraint=eastwest;rounded=1;" parent="12" vertex="1">
                    <mxGeometry y="156" width="140" height="8" as="geometry"/>
                </mxCell>
                <mxCell id="19" value="+ BookAppointment()&#10;" style="text;strokeColor=none;fillColor=none;align=left;verticalAlign=top;spacingLeft=4;spacingRight=4;overflow=hidden;rotatable=0;points=[[0,0.5],[1,0.5]];portConstraint=eastwest;rounded=1;" parent="12" vertex="1">
                    <mxGeometry y="164" width="140" height="26" as="geometry"/>
                </mxCell>
                <mxCell id="20" value="+ UpdateInformation()" style="text;strokeColor=none;fillColor=none;align=left;verticalAlign=top;spacingLeft=4;spacingRight=4;overflow=hidden;rotatable=0;points=[[0,0.5],[1,0.5]];portConstraint=eastwest;rounded=1;" parent="12" vertex="1">
                    <mxGeometry y="190" width="140" height="26" as="geometry"/>
                </mxCell>
                <mxCell id="21" value="Doctor Class" style="swimlane;fontStyle=0;childLayout=stackLayout;horizontal=1;startSize=26;fillColor=none;horizontalStack=0;resizeParent=1;resizeParentMax=0;resizeLast=0;collapsible=1;marginBottom=0;rounded=1;" parent="1" vertex="1">
                    <mxGeometry x="821" y="306" width="140" height="216" as="geometry"/>
                </mxCell>
                <mxCell id="22" value="+ d_photo: String" style="text;strokeColor=none;fillColor=none;align=left;verticalAlign=top;spacingLeft=4;spacingRight=4;overflow=hidden;rotatable=0;points=[[0,0.5],[1,0.5]];portConstraint=eastwest;rounded=1;" parent="21" vertex="1">
                    <mxGeometry y="26" width="140" height="26" as="geometry"/>
                </mxCell>
                <mxCell id="37" value="+ d_id: int" style="text;strokeColor=none;fillColor=none;align=left;verticalAlign=top;spacingLeft=4;spacingRight=4;overflow=hidden;rotatable=0;points=[[0,0.5],[1,0.5]];portConstraint=eastwest;rounded=1;" parent="21" vertex="1">
                    <mxGeometry y="52" width="140" height="26" as="geometry"/>
                </mxCell>
                <mxCell id="23" value="+ p_address: String" style="text;strokeColor=none;fillColor=none;align=left;verticalAlign=top;spacingLeft=4;spacingRight=4;overflow=hidden;rotatable=0;points=[[0,0.5],[1,0.5]];portConstraint=eastwest;rounded=1;" parent="21" vertex="1">
                    <mxGeometry y="78" width="140" height="26" as="geometry"/>
                </mxCell>
                <mxCell id="24" value="+ d_category: int" style="text;strokeColor=none;fillColor=none;align=left;verticalAlign=top;spacingLeft=4;spacingRight=4;overflow=hidden;rotatable=0;points=[[0,0.5],[1,0.5]];portConstraint=eastwest;rounded=1;" parent="21" vertex="1">
                    <mxGeometry y="104" width="140" height="26" as="geometry"/>
                </mxCell>
                <mxCell id="25" value="+ d_phone: Number" style="text;strokeColor=none;fillColor=none;align=left;verticalAlign=top;spacingLeft=4;spacingRight=4;overflow=hidden;rotatable=0;points=[[0,0.5],[1,0.5]];portConstraint=eastwest;rounded=1;" parent="21" vertex="1">
                    <mxGeometry y="130" width="140" height="26" as="geometry"/>
                </mxCell>
                <mxCell id="26" value="" style="line;strokeWidth=1;fillColor=none;align=left;verticalAlign=middle;spacingTop=-1;spacingLeft=3;spacingRight=3;rotatable=0;labelPosition=right;points=[];portConstraint=eastwest;rounded=1;" parent="21" vertex="1">
                    <mxGeometry y="156" width="140" height="8" as="geometry"/>
                </mxCell>
                <mxCell id="27" value="+ ManageAppointment()&#10;" style="text;strokeColor=none;fillColor=none;align=left;verticalAlign=top;spacingLeft=4;spacingRight=4;overflow=hidden;rotatable=0;points=[[0,0.5],[1,0.5]];portConstraint=eastwest;rounded=1;" parent="21" vertex="1">
                    <mxGeometry y="164" width="140" height="26" as="geometry"/>
                </mxCell>
                <mxCell id="28" value="+ ManageInformation()" style="text;strokeColor=none;fillColor=none;align=left;verticalAlign=top;spacingLeft=4;spacingRight=4;overflow=hidden;rotatable=0;points=[[0,0.5],[1,0.5]];portConstraint=eastwest;rounded=1;" parent="21" vertex="1">
                    <mxGeometry y="190" width="140" height="26" as="geometry"/>
                </mxCell>
                <mxCell id="29" value="Appointment Class" style="swimlane;fontStyle=0;childLayout=stackLayout;horizontal=1;startSize=26;fillColor=none;horizontalStack=0;resizeParent=1;resizeParentMax=0;resizeLast=0;collapsible=1;marginBottom=0;rounded=1;" parent="1" vertex="1">
                    <mxGeometry x="522" y="360" width="140" height="216" as="geometry"/>
                </mxCell>
                <mxCell id="30" value="+ app_id: int" style="text;strokeColor=none;fillColor=none;align=left;verticalAlign=top;spacingLeft=4;spacingRight=4;overflow=hidden;rotatable=0;points=[[0,0.5],[1,0.5]];portConstraint=eastwest;rounded=1;" parent="29" vertex="1">
                    <mxGeometry y="26" width="140" height="26" as="geometry"/>
                </mxCell>
                <mxCell id="31" value="+ app_date: Date&amp;Time" style="text;strokeColor=none;fillColor=none;align=left;verticalAlign=top;spacingLeft=4;spacingRight=4;overflow=hidden;rotatable=0;points=[[0,0.5],[1,0.5]];portConstraint=eastwest;rounded=1;" parent="29" vertex="1">
                    <mxGeometry y="52" width="140" height="26" as="geometry"/>
                </mxCell>
                <mxCell id="32" value="+ app_d_id: int" style="text;strokeColor=none;fillColor=none;align=left;verticalAlign=top;spacingLeft=4;spacingRight=4;overflow=hidden;rotatable=0;points=[[0,0.5],[1,0.5]];portConstraint=eastwest;rounded=1;" parent="29" vertex="1">
                    <mxGeometry y="78" width="140" height="26" as="geometry"/>
                </mxCell>
                <mxCell id="33" value="+ app_p_id: int" style="text;strokeColor=none;fillColor=none;align=left;verticalAlign=top;spacingLeft=4;spacingRight=4;overflow=hidden;rotatable=0;points=[[0,0.5],[1,0.5]];portConstraint=eastwest;rounded=1;" parent="29" vertex="1">
                    <mxGeometry y="104" width="140" height="26" as="geometry"/>
                </mxCell>
                <mxCell id="116" value="+ r_id: int" style="text;strokeColor=none;fillColor=none;align=left;verticalAlign=top;spacingLeft=4;spacingRight=4;overflow=hidden;rotatable=0;points=[[0,0.5],[1,0.5]];portConstraint=eastwest;rounded=1;" parent="29" vertex="1">
                    <mxGeometry y="130" width="140" height="26" as="geometry"/>
                </mxCell>
                <mxCell id="34" value="" style="line;strokeWidth=1;fillColor=none;align=left;verticalAlign=middle;spacingTop=-1;spacingLeft=3;spacingRight=3;rotatable=0;labelPosition=right;points=[];portConstraint=eastwest;rounded=1;" parent="29" vertex="1">
                    <mxGeometry y="156" width="140" height="8" as="geometry"/>
                </mxCell>
                <mxCell id="35" value="+ CheckAppointment()&#10;" style="text;strokeColor=none;fillColor=none;align=left;verticalAlign=top;spacingLeft=4;spacingRight=4;overflow=hidden;rotatable=0;points=[[0,0.5],[1,0.5]];portConstraint=eastwest;rounded=1;" parent="29" vertex="1">
                    <mxGeometry y="164" width="140" height="26" as="geometry"/>
                </mxCell>
                <mxCell id="36" value="+ CheckSlote()" style="text;strokeColor=none;fillColor=none;align=left;verticalAlign=top;spacingLeft=4;spacingRight=4;overflow=hidden;rotatable=0;points=[[0,0.5],[1,0.5]];portConstraint=eastwest;rounded=1;" parent="29" vertex="1">
                    <mxGeometry y="190" width="140" height="26" as="geometry"/>
                </mxCell>
                <mxCell id="39" value="Notification Class" style="swimlane;fontStyle=0;childLayout=stackLayout;horizontal=1;startSize=26;fillColor=none;horizontalStack=0;resizeParent=1;resizeParentMax=0;resizeLast=0;collapsible=1;marginBottom=0;rounded=1;" parent="1" vertex="1">
                    <mxGeometry x="200" y="624" width="140" height="190" as="geometry"/>
                </mxCell>
                <mxCell id="40" value="+ n_id: int" style="text;strokeColor=none;fillColor=none;align=left;verticalAlign=top;spacingLeft=4;spacingRight=4;overflow=hidden;rotatable=0;points=[[0,0.5],[1,0.5]];portConstraint=eastwest;rounded=1;" parent="39" vertex="1">
                    <mxGeometry y="26" width="140" height="26" as="geometry"/>
                </mxCell>
                <mxCell id="41" value="+ n_date: Date" style="text;strokeColor=none;fillColor=none;align=left;verticalAlign=top;spacingLeft=4;spacingRight=4;overflow=hidden;rotatable=0;points=[[0,0.5],[1,0.5]];portConstraint=eastwest;rounded=1;" parent="39" vertex="1">
                    <mxGeometry y="52" width="140" height="26" as="geometry"/>
                </mxCell>
                <mxCell id="42" value="+ n_d_id: int" style="text;strokeColor=none;fillColor=none;align=left;verticalAlign=top;spacingLeft=4;spacingRight=4;overflow=hidden;rotatable=0;points=[[0,0.5],[1,0.5]];portConstraint=eastwest;rounded=1;" parent="39" vertex="1">
                    <mxGeometry y="78" width="140" height="26" as="geometry"/>
                </mxCell>
                <mxCell id="43" value="+ n_p_id: int" style="text;strokeColor=none;fillColor=none;align=left;verticalAlign=top;spacingLeft=4;spacingRight=4;overflow=hidden;rotatable=0;points=[[0,0.5],[1,0.5]];portConstraint=eastwest;rounded=1;" parent="39" vertex="1">
                    <mxGeometry y="104" width="140" height="26" as="geometry"/>
                </mxCell>
                <mxCell id="86" value="+ n_message:String" style="text;strokeColor=none;fillColor=none;align=left;verticalAlign=top;spacingLeft=4;spacingRight=4;overflow=hidden;rotatable=0;points=[[0,0.5],[1,0.5]];portConstraint=eastwest;rounded=1;" parent="39" vertex="1">
                    <mxGeometry y="130" width="140" height="26" as="geometry"/>
                </mxCell>
                <mxCell id="44" value="" style="line;strokeWidth=1;fillColor=none;align=left;verticalAlign=middle;spacingTop=-1;spacingLeft=3;spacingRight=3;rotatable=0;labelPosition=right;points=[];portConstraint=eastwest;rounded=1;" parent="39" vertex="1">
                    <mxGeometry y="156" width="140" height="8" as="geometry"/>
                </mxCell>
                <mxCell id="45" value="+ SendNotification()&#10;" style="text;strokeColor=none;fillColor=none;align=left;verticalAlign=top;spacingLeft=4;spacingRight=4;overflow=hidden;rotatable=0;points=[[0,0.5],[1,0.5]];portConstraint=eastwest;rounded=1;" parent="39" vertex="1">
                    <mxGeometry y="164" width="140" height="26" as="geometry"/>
                </mxCell>
                <mxCell id="47" value="Category Class" style="swimlane;fontStyle=0;childLayout=stackLayout;horizontal=1;startSize=26;fillColor=none;horizontalStack=0;resizeParent=1;resizeParentMax=0;resizeLast=0;collapsible=1;marginBottom=0;rounded=1;" parent="1" vertex="1">
                    <mxGeometry x="821" y="600" width="140" height="104" as="geometry"/>
                </mxCell>
                <mxCell id="48" value="+ c_id: int" style="text;strokeColor=none;fillColor=none;align=left;verticalAlign=top;spacingLeft=4;spacingRight=4;overflow=hidden;rotatable=0;points=[[0,0.5],[1,0.5]];portConstraint=eastwest;rounded=1;" parent="47" vertex="1">
                    <mxGeometry y="26" width="140" height="26" as="geometry"/>
                </mxCell>
                <mxCell id="49" value="+ c_name: String" style="text;strokeColor=none;fillColor=none;align=left;verticalAlign=top;spacingLeft=4;spacingRight=4;overflow=hidden;rotatable=0;points=[[0,0.5],[1,0.5]];portConstraint=eastwest;rounded=1;" parent="47" vertex="1">
                    <mxGeometry y="52" width="140" height="26" as="geometry"/>
                </mxCell>
                <mxCell id="50" value="+ c_icon: String" style="text;strokeColor=none;fillColor=none;align=left;verticalAlign=top;spacingLeft=4;spacingRight=4;overflow=hidden;rotatable=0;points=[[0,0.5],[1,0.5]];portConstraint=eastwest;rounded=1;" parent="47" vertex="1">
                    <mxGeometry y="78" width="140" height="26" as="geometry"/>
                </mxCell>
                <mxCell id="64" style="edgeStyle=elbowEdgeStyle;html=1;exitX=1;exitY=0.5;exitDx=0;exitDy=0;entryX=0;entryY=0.5;entryDx=0;entryDy=0;rounded=1;strokeColor=#141414;" parent="1" source="3" target="37" edge="1">
                    <mxGeometry relative="1" as="geometry">
                        <Array as="points">
                            <mxPoint x="686" y="210"/>
                        </Array>
                    </mxGeometry>
                </mxCell>
                <mxCell id="65" value="1:1" style="text;html=1;align=center;verticalAlign=middle;resizable=0;points=[];autosize=1;strokeColor=none;fillColor=none;rounded=1;" parent="1" vertex="1">
                    <mxGeometry x="682" y="109" width="30" height="20" as="geometry"/>
                </mxCell>
                <mxCell id="66" value="1:*" style="text;html=1;align=center;verticalAlign=middle;resizable=0;points=[];autosize=1;strokeColor=none;fillColor=none;rounded=1;" parent="1" vertex="1">
                    <mxGeometry x="786" y="344" width="30" height="20" as="geometry"/>
                </mxCell>
                <mxCell id="68" style="edgeStyle=elbowEdgeStyle;rounded=1;html=1;exitX=0;exitY=0.5;exitDx=0;exitDy=0;strokeColor=#0A0A0A;entryX=1;entryY=0.5;entryDx=0;entryDy=0;" parent="1" source="3" target="38" edge="1">
                    <mxGeometry relative="1" as="geometry">
                        <mxPoint x="359.3529411764707" y="349.7647058823529" as="targetPoint"/>
                        <Array as="points">
                            <mxPoint x="459" y="220"/>
                        </Array>
                    </mxGeometry>
                </mxCell>
                <mxCell id="69" value="1:1" style="text;html=1;align=center;verticalAlign=middle;resizable=0;points=[];autosize=1;strokeColor=none;fillColor=none;" parent="1" vertex="1">
                    <mxGeometry x="490" y="113" width="27" height="18" as="geometry"/>
                </mxCell>
                <mxCell id="70" value="*:1" style="text;html=1;align=center;verticalAlign=middle;resizable=0;points=[];autosize=1;strokeColor=none;fillColor=none;" parent="1" vertex="1">
                    <mxGeometry x="354" y="249" width="25" height="18" as="geometry"/>
                </mxCell>
                <mxCell id="73" style="edgeStyle=elbowEdgeStyle;rounded=1;html=1;exitX=1;exitY=0.5;exitDx=0;exitDy=0;entryX=0;entryY=0.5;entryDx=0;entryDy=0;strokeColor=#0A0A0A;" parent="1" source="38" target="33" edge="1">
                    <mxGeometry relative="1" as="geometry">
                        <Array as="points">
                            <mxPoint x="459" y="324"/>
                            <mxPoint x="437" y="414"/>
                            <mxPoint x="457" y="420"/>
                        </Array>
                    </mxGeometry>
                </mxCell>
                <mxCell id="74" value="1:1" style="text;html=1;align=center;verticalAlign=middle;resizable=0;points=[];autosize=1;strokeColor=none;fillColor=none;" parent="1" vertex="1">
                    <mxGeometry x="354" y="269" width="27" height="18" as="geometry"/>
                </mxCell>
                <mxCell id="75" value="1:*" style="text;html=1;align=center;verticalAlign=middle;resizable=0;points=[];autosize=1;strokeColor=none;fillColor=none;" parent="1" vertex="1">
                    <mxGeometry x="490" y="458" width="25" height="18" as="geometry"/>
                </mxCell>
                <mxCell id="76" style="edgeStyle=elbowEdgeStyle;rounded=1;html=1;exitX=0;exitY=0.5;exitDx=0;exitDy=0;entryX=0;entryY=0.5;entryDx=0;entryDy=0;strokeColor=#0A0A0A;" parent="1" source="38" target="43" edge="1">
                    <mxGeometry relative="1" as="geometry">
                        <Array as="points">
                            <mxPoint x="157" y="456"/>
                        </Array>
                    </mxGeometry>
                </mxCell>
                <mxCell id="77" value="1:1" style="text;html=1;align=center;verticalAlign=middle;resizable=0;points=[];autosize=1;strokeColor=none;fillColor=none;" parent="1" vertex="1">
                    <mxGeometry x="164" y="270" width="27" height="18" as="geometry"/>
                </mxCell>
                <mxCell id="78" value="1:*" style="text;html=1;align=center;verticalAlign=middle;resizable=0;points=[];autosize=1;strokeColor=none;fillColor=none;" parent="1" vertex="1">
                    <mxGeometry x="164" y="716" width="25" height="18" as="geometry"/>
                </mxCell>
                <mxCell id="80" style="edgeStyle=elbowEdgeStyle;rounded=1;html=1;exitX=0;exitY=0.5;exitDx=0;exitDy=0;entryX=1;entryY=0.5;entryDx=0;entryDy=0;strokeColor=#0A0A0A;" parent="1" source="37" target="42" edge="1">
                    <mxGeometry relative="1" as="geometry">
                        <Array as="points">
                            <mxPoint x="804" y="559"/>
                            <mxPoint x="704" y="779"/>
                            <mxPoint x="759" y="564"/>
                            <mxPoint x="646" y="767"/>
                            <mxPoint x="688" y="451"/>
                            <mxPoint x="761" y="561"/>
                            <mxPoint x="741" y="460"/>
                            <mxPoint x="733" y="483"/>
                            <mxPoint x="684" y="674"/>
                            <mxPoint x="719" y="452"/>
                        </Array>
                    </mxGeometry>
                </mxCell>
                <mxCell id="81" value="1:1" style="text;html=1;align=center;verticalAlign=middle;resizable=0;points=[];autosize=1;strokeColor=none;fillColor=none;" parent="1" vertex="1">
                    <mxGeometry x="788" y="374" width="27" height="18" as="geometry"/>
                </mxCell>
                <mxCell id="82" value="1:*" style="text;html=1;align=center;verticalAlign=middle;resizable=0;points=[];autosize=1;strokeColor=none;fillColor=none;" parent="1" vertex="1">
                    <mxGeometry x="345" y="696" width="25" height="18" as="geometry"/>
                </mxCell>
                <mxCell id="83" style="edgeStyle=elbowEdgeStyle;rounded=1;html=1;exitX=1;exitY=0.5;exitDx=0;exitDy=0;entryX=1;entryY=0.5;entryDx=0;entryDy=0;strokeColor=#0A0A0A;" parent="1" source="48" target="24" edge="1">
                    <mxGeometry relative="1" as="geometry">
                        <Array as="points">
                            <mxPoint x="1012" y="533"/>
                        </Array>
                    </mxGeometry>
                </mxCell>
                <mxCell id="84" value="1:1" style="text;html=1;align=center;verticalAlign=middle;resizable=0;points=[];autosize=1;strokeColor=none;fillColor=none;" parent="1" vertex="1">
                    <mxGeometry x="967" y="402" width="27" height="18" as="geometry"/>
                </mxCell>
                <mxCell id="85" value="1:1" style="text;html=1;align=center;verticalAlign=middle;resizable=0;points=[];autosize=1;strokeColor=none;fillColor=none;" parent="1" vertex="1">
                    <mxGeometry x="964" y="617" width="27" height="18" as="geometry"/>
                </mxCell>
                <mxCell id="98" value="Admin Class" style="swimlane;fontStyle=0;childLayout=stackLayout;horizontal=1;startSize=26;fillColor=none;horizontalStack=0;resizeParent=1;resizeParentMax=0;resizeLast=0;collapsible=1;marginBottom=0;rounded=1;" parent="1" vertex="1">
                    <mxGeometry x="821" y="155" width="140" height="104" as="geometry"/>
                </mxCell>
                <mxCell id="99" value="+ ManageUsers()" style="text;strokeColor=none;fillColor=none;align=left;verticalAlign=top;spacingLeft=4;spacingRight=4;overflow=hidden;rotatable=0;points=[[0,0.5],[1,0.5]];portConstraint=eastwest;rounded=1;" parent="98" vertex="1">
                    <mxGeometry y="26" width="140" height="26" as="geometry"/>
                </mxCell>
                <mxCell id="100" value="+ ManageAppointments()" style="text;strokeColor=none;fillColor=none;align=left;verticalAlign=top;spacingLeft=4;spacingRight=4;overflow=hidden;rotatable=0;points=[[0,0.5],[1,0.5]];portConstraint=eastwest;rounded=1;" parent="98" vertex="1">
                    <mxGeometry y="52" width="140" height="26" as="geometry"/>
                </mxCell>
                <mxCell id="101" value="+ ManageSystem()" style="text;strokeColor=none;fillColor=none;align=left;verticalAlign=top;spacingLeft=4;spacingRight=4;overflow=hidden;rotatable=0;points=[[0,0.5],[1,0.5]];portConstraint=eastwest;rounded=1;" parent="98" vertex="1">
                    <mxGeometry y="78" width="140" height="26" as="geometry"/>
                </mxCell>
                <mxCell id="102" style="edgeStyle=elbowEdgeStyle;rounded=1;html=1;exitX=0;exitY=0.5;exitDx=0;exitDy=0;entryX=1;entryY=0.5;entryDx=0;entryDy=0;strokeColor=#141414;" parent="1" source="99" target="3" edge="1">
                    <mxGeometry relative="1" as="geometry"/>
                </mxCell>
                <mxCell id="104" value="*:1" style="text;html=1;align=center;verticalAlign=middle;resizable=0;points=[];autosize=1;strokeColor=none;fillColor=none;" parent="1" vertex="1">
                    <mxGeometry x="794" y="172" width="25" height="18" as="geometry"/>
                </mxCell>
                <mxCell id="105" value="Report Class" style="swimlane;fontStyle=0;childLayout=stackLayout;horizontal=1;startSize=26;fillColor=none;horizontalStack=0;resizeParent=1;resizeParentMax=0;resizeLast=0;collapsible=1;marginBottom=0;rounded=1;" parent="1" vertex="1">
                    <mxGeometry x="296.5" y="427" width="140" height="190" as="geometry"/>
                </mxCell>
                <mxCell id="106" value="+ App_id : int" style="text;strokeColor=none;fillColor=none;align=left;verticalAlign=top;spacingLeft=4;spacingRight=4;overflow=hidden;rotatable=0;points=[[0,0.5],[1,0.5]];portConstraint=eastwest;rounded=1;" parent="105" vertex="1">
                    <mxGeometry y="26" width="140" height="26" as="geometry"/>
                </mxCell>
                <mxCell id="107" value="+ p_id : int" style="text;strokeColor=none;fillColor=none;align=left;verticalAlign=top;spacingLeft=4;spacingRight=4;overflow=hidden;rotatable=0;points=[[0,0.5],[1,0.5]];portConstraint=eastwest;rounded=1;" parent="105" vertex="1">
                    <mxGeometry y="52" width="140" height="26" as="geometry"/>
                </mxCell>
                <mxCell id="108" value="+ d_id : int" style="text;strokeColor=none;fillColor=none;align=left;verticalAlign=top;spacingLeft=4;spacingRight=4;overflow=hidden;rotatable=0;points=[[0,0.5],[1,0.5]];portConstraint=eastwest;rounded=1;" parent="105" vertex="1">
                    <mxGeometry y="78" width="140" height="26" as="geometry"/>
                </mxCell>
                <mxCell id="109" value="+ report : String" style="text;strokeColor=none;fillColor=none;align=left;verticalAlign=top;spacingLeft=4;spacingRight=4;overflow=hidden;rotatable=0;points=[[0,0.5],[1,0.5]];portConstraint=eastwest;rounded=1;" parent="105" vertex="1">
                    <mxGeometry y="104" width="140" height="26" as="geometry"/>
                </mxCell>
                <mxCell id="122" value="" style="line;strokeWidth=1;fillColor=none;align=left;verticalAlign=middle;spacingTop=-1;spacingLeft=3;spacingRight=3;rotatable=0;labelPosition=right;points=[];portConstraint=eastwest;rounded=1;" parent="105" vertex="1">
                    <mxGeometry y="130" width="140" height="8" as="geometry"/>
                </mxCell>
                <mxCell id="124" value="+ CreateReport()" style="text;strokeColor=none;fillColor=none;align=left;verticalAlign=top;spacingLeft=4;spacingRight=4;overflow=hidden;rotatable=0;points=[[0,0.5],[1,0.5]];portConstraint=eastwest;rounded=1;" parent="105" vertex="1">
                    <mxGeometry y="138" width="140" height="26" as="geometry"/>
                </mxCell>
                <mxCell id="110" value="+ ViewReport()" style="text;strokeColor=none;fillColor=none;align=left;verticalAlign=top;spacingLeft=4;spacingRight=4;overflow=hidden;rotatable=0;points=[[0,0.5],[1,0.5]];portConstraint=eastwest;rounded=1;" parent="105" vertex="1">
                    <mxGeometry y="164" width="140" height="26" as="geometry"/>
                </mxCell>
                <mxCell id="117" style="edgeStyle=elbowEdgeStyle;rounded=1;html=1;exitX=1;exitY=0.5;exitDx=0;exitDy=0;entryX=0;entryY=0.5;entryDx=0;entryDy=0;strokeColor=#141414;" parent="1" source="106" target="116" edge="1">
                    <mxGeometry relative="1" as="geometry">
                        <Array as="points">
                            <mxPoint x="449" y="503"/>
                            <mxPoint x="504" y="513"/>
                            <mxPoint x="437" y="510"/>
                        </Array>
                    </mxGeometry>
                </mxCell>
                <mxCell id="120" value="1:1" style="text;html=1;align=center;verticalAlign=middle;resizable=0;points=[];autosize=1;strokeColor=none;fillColor=none;" parent="1" vertex="1">
                    <mxGeometry x="489" y="507" width="27" height="18" as="geometry"/>
                </mxCell>
                <mxCell id="121" value="1:1" style="text;html=1;align=center;verticalAlign=middle;resizable=0;points=[];autosize=1;strokeColor=none;fillColor=none;" parent="1" vertex="1">
                    <mxGeometry x="450" y="507" width="27" height="18" as="geometry"/>
                </mxCell>
            </root>
        </mxGraphModel>
    </diagram>
</mxfile>